<?xml version="1.0" standalone="no"?>
<!DOCTYPE svg PUBLIC "-//W3C//DTD SVG 20010904//EN"
 "http://www.w3.org/TR/2001/REC-SVG-20010904/DTD/svg10.dtd">
<svg version="1.0" xmlns="http://www.w3.org/2000/svg"
 width="225.000000pt" height="225.000000pt" viewBox="0 0 225.000000 225.000000"
 preserveAspectRatio="xMidYMid meet">

<g transform="translate(0.000000,225.000000) scale(0.100000,-0.100000)"
fill="#000000" stroke="none">
<path d="M598 2240 c-139 -24 -279 -96 -380 -196 -84 -83 -161 -207 -153 -244
3 -16 2 -20 -3 -12 -6 9 -12 1 -20 -24 -6 -21 -9 -41 -6 -46 9 -15 24 2 25 30
l1 27 8 -25 c9 -29 12 -63 3 -42 -4 10 -8 9 -19 -5 -18 -24 -18 -38 1 -23 11
9 18 10 28 1 8 -6 16 -9 19 -6 2 3 18 -10 34 -28 l29 -32 -34 30 -35 30 25
-32 c24 -32 58 -44 60 -20 4 35 18 -91 20 -178 2 -85 3 -75 9 70 5 126 12 180
24 209 65 148 213 275 354 305 68 14 987 15 1063 1 123 -23 261 -124 326 -240
61 -108 63 -128 63 -663 0 -317 -4 -504 -11 -539 -34 -161 -186 -321 -347
-362 -33 -9 -110 -17 -173 -18 l-114 -2 93 -3 c58 -3 90 -7 87 -14 -7 -11 70
-1 97 12 23 12 37 11 18 -1 -13 -9 -13 -10 0 -10 13 0 13 -2 0 -9 -8 -6 -27
-7 -42 -4 -15 3 -28 1 -28 -4 0 -12 40 -48 63 -56 9 -4 17 -11 17 -17 0 -5 -8
-11 -17 -11 -10 -1 -4 -5 12 -9 l30 -7 -25 -12 c-23 -10 -23 -11 10 -5 19 3
44 7 55 10 11 2 7 -3 -10 -11 -47 -22 -3 -18 57 6 150 59 281 180 365 337 7
13 25 60 40 105 l27 82 4 493 c2 310 -1 518 -7 560 -25 159 -90 291 -200 401
-106 108 -239 176 -392 200 -75 13 -979 13 -1051 1z m1202 -2160 c11 -7 5 -8
-20 -4 -43 8 -51 14 -19 14 13 0 31 -5 39 -10z"/>
<path d="M1685 1784 c-20 -20 -20 -21 36 -72 44 -40 47 -41 63 -24 52 59 -43
151 -99 96z"/>
<path d="M970 1661 c-68 -22 -147 -62 -180 -91 -14 -12 -32 -27 -40 -34 -21
-15 -80 -89 -80 -99 0 -4 6 -5 13 -1 7 4 9 3 4 -2 -5 -5 -14 -9 -19 -9 -6 0
-13 -6 -16 -14 -3 -8 0 -11 6 -7 6 4 8 -2 5 -14 -4 -14 0 -20 11 -20 9 0 16
-4 16 -10 0 -5 11 -15 26 -23 14 -7 33 -25 43 -41 l18 -27 24 27 c130 146 187
178 324 178 79 0 97 -3 148 -28 75 -36 137 -98 173 -173 24 -50 28 -70 29
-148 0 -82 -3 -96 -32 -156 -38 -77 -93 -131 -169 -166 -51 -23 -63 -43 -26
-43 13 0 14 2 4 9 -10 6 -9 10 7 14 12 3 19 1 15 -4 -3 -5 1 -9 10 -9 8 0 24
-16 36 -35 25 -40 28 -41 46 -17 13 15 13 14 5 -9 -8 -23 -7 -28 12 -34 21 -6
21 -7 3 -14 -17 -6 -17 -8 -4 -14 21 -8 98 43 155 102 26 27 63 85 91 140 45
93 46 97 50 208 5 131 -4 172 -59 285 -68 135 -217 255 -359 287 -72 17 -227
12 -290 -8z"/>
<path d="M72 1640 c0 -19 2 -27 5 -17 2 9 2 25 0 35 -3 9 -5 1 -5 -18z"/>
<path d="M11 1644 c0 -11 3 -14 6 -6 3 7 2 16 -1 19 -3 4 -6 -2 -5 -13z"/>
<path d="M166 1562 c-2 -4 -1 -14 4 -22 7 -11 9 -9 7 8 -1 24 -3 26 -11 14z"/>
<path d="M630 1375 c-11 -13 -10 -14 4 -9 9 3 16 10 16 15 0 13 -6 11 -20 -6z"/>
<path d="M730 1274 c0 -8 5 -12 10 -9 6 3 10 10 10 16 0 5 -4 9 -10 9 -5 0
-10 -7 -10 -16z"/>
<path d="M782 1260 c-7 -11 -12 -28 -11 -37 0 -11 7 -5 15 16 17 38 14 50 -4
21z"/>
<path d="M1528 173 c6 -2 18 -2 25 0 6 3 1 5 -13 5 -14 0 -19 -2 -12 -5z"/>
<path d="M1680 31 c0 -5 9 -7 20 -4 11 3 20 7 20 9 0 2 -9 4 -20 4 -11 0 -20
-4 -20 -9z"/>
</g>
</svg>
